<svg width="40" height="40" viewBox="0 0 40 40" fill="none" xmlns="http://www.w3.org/2000/svg">
<circle cx="20" cy="20" r="19.5" fill="black" stroke="#272727"/>
<path d="M20 12C16.6865 12 14 14.6865 14 18C14 19.3047 14.4278 20.502 15.1388 21.4825C15.1515 21.506 15.1535 21.5323 15.168 21.5548L19.168 27.5548C19.3535 27.833 19.666 28 20 28C20.334 28 20.6465 27.833 20.832 27.5548L24.832 21.5548C24.8467 21.5323 24.8485 21.506 24.8612 21.4825C25.5723 20.502 26 19.3047 26 18C26 14.6865 23.3135 12 20 12ZM20 20C18.8955 20 18 19.1045 18 18C18 16.8955 18.8955 16 20 16C21.1045 16 22 16.8955 22 18C22 19.1045 21.1045 20 20 20Z" fill="#707070"/>
</svg>
