<svg width="40" height="40" viewBox="0 0 40 40" fill="none" xmlns="http://www.w3.org/2000/svg">
<circle cx="20" cy="20" r="19.5" fill="black" stroke="#272727"/>
<path d="M17.4835 14.831C18.3807 13.2215 18.8293 12.4167 19.5 12.4167C20.1707 12.4167 20.6193 13.2215 21.5165 14.831L21.7486 15.2474C22.0036 15.7048 22.131 15.9335 22.3299 16.0844C22.5286 16.2353 22.7761 16.2913 23.2712 16.4033L23.722 16.5053C25.4642 16.8995 26.3354 17.0966 26.5427 17.7631C26.7499 18.4295 26.1561 19.124 24.9683 20.5129L24.661 20.8723C24.3235 21.2669 24.1547 21.4643 24.0787 21.7085C24.0029 21.9526 24.0284 22.2159 24.0794 22.7425L24.1258 23.2219C24.3054 25.0751 24.3952 26.0017 23.8526 26.4136C23.31 26.8255 22.4943 26.4499 20.8631 25.6988L20.441 25.5045C19.9775 25.2911 19.7457 25.1843 19.5 25.1843C19.2543 25.1843 19.0225 25.2911 18.559 25.5045L18.137 25.6988C16.5057 26.4499 15.69 26.8255 15.1474 26.4136C14.6048 26.0017 14.6946 25.0751 14.8742 23.2219L14.9206 22.7425C14.9717 22.2159 14.9972 21.9526 14.9212 21.7085C14.8453 21.4643 14.6766 21.2669 14.339 20.8723L14.0317 20.5129C12.844 19.124 12.2501 18.4295 12.4573 17.7631C12.6646 17.0966 13.5357 16.8995 15.278 16.5053L15.7288 16.4033C16.2239 16.2913 16.4714 16.2353 16.6702 16.0844C16.8689 15.9335 16.9964 15.7048 17.2514 15.2474L17.4835 14.831Z" fill="#707070"/>
</svg>
