<svg width="40" height="40" viewBox="0 0 40 40" fill="none" xmlns="http://www.w3.org/2000/svg">
<circle cx="20" cy="20" r="19.5" fill="black" stroke="#272727"/>
<path d="M24.6122 18.3245L23.5598 17.9337C23.0782 17.7556 22.2626 17.6089 21.7489 17.6089H18.5756C18.0619 17.6089 17.246 17.7556 16.7644 17.9337L15.7123 18.3245C15.2307 18.5031 14.9183 19.0624 15.0188 19.5661L16.5219 27.0829C16.6225 27.5866 17.1261 28 17.6404 28H22.6843C23.198 28 23.7017 27.5867 23.8027 27.0829L25.3059 19.5661C25.406 19.0625 25.0945 18.5031 24.6122 18.3245ZM23.298 21.8699C23.298 22.1268 23.0878 22.3373 22.8302 22.3373H17.494C17.2369 22.3373 17.0266 22.1268 17.0266 21.8699V20.3511C17.0266 20.0935 17.2369 19.8829 17.494 19.8829H22.8302C23.0878 19.8829 23.298 20.0947 23.298 20.3511V21.8699Z" fill="#707070"/>
<path d="M21.7488 8H18.5756L17.6403 16.6736H22.6841L21.7488 8Z" fill="#707070"/>
</svg>
