<svg width="40" height="40" viewBox="0 0 40 40" fill="none" xmlns="http://www.w3.org/2000/svg">
<circle cx="20" cy="20" r="19.5" fill="black" stroke="#272727"/>
<path d="M26.1737 21.4021C26.1737 21.4396 26.1695 21.4771 26.161 21.5137C26.1695 21.6393 26.1737 21.7691 26.1737 21.9031C26.1737 25.3126 20 27.2326 20 27.2326C20 27.2326 13.8263 25.3126 13.8263 21.9021C13.8263 21.7688 13.8305 21.6389 13.8389 21.5126C13.8306 21.4764 13.8264 21.4393 13.8263 21.4021V13.8347C13.8266 13.7022 13.8794 13.5752 13.9731 13.4815C14.0668 13.3878 14.1938 13.335 14.3263 13.3347H25.6737C25.8062 13.335 25.9332 13.3878 26.0269 13.4815C26.1206 13.5752 26.1734 13.7022 26.1737 13.8347V21.4021ZM23.7621 18.7137C23.7618 18.5811 23.7091 18.4541 23.6153 18.3604C23.5216 18.2667 23.3946 18.2139 23.2621 18.2137H21.2726V16.2242C21.2721 16.092 21.2193 15.9654 21.1259 15.872C21.0324 15.7785 20.9058 15.7258 20.7737 15.7252H19.2263C19.0938 15.7255 18.9668 15.7783 18.8731 15.872C18.7794 15.9657 18.7266 16.0927 18.7263 16.2252V18.2137H16.7379C16.6054 18.2139 16.4783 18.2667 16.3846 18.3604C16.2909 18.4541 16.2382 18.5811 16.2379 18.7137V20.261C16.2384 20.3934 16.2913 20.5201 16.385 20.6136C16.4787 20.7071 16.6055 20.7597 16.7379 20.76H18.7274V22.7484C18.7276 22.8807 18.7803 23.0076 18.8737 23.1013C18.9672 23.195 19.094 23.2478 19.2263 23.2484H20.7737C20.9062 23.2481 21.0332 23.1954 21.1269 23.1016C21.2206 23.0079 21.2734 22.8809 21.2737 22.7484V20.76H23.2621C23.3946 20.7597 23.5216 20.7069 23.6153 20.6132C23.7091 20.5195 23.7618 20.3925 23.7621 20.26V18.7137Z" fill="#707070"/>
</svg>
