<svg width="19" height="19" viewBox="0 0 19 19" fill="none" xmlns="http://www.w3.org/2000/svg">
<g clip-path="url(#clip0_2049_244)">
<path d="M0.678467 16.9643V2.03572C0.678467 1.67578 0.821451 1.33059 1.07596 1.07607C1.33048 0.821558 1.67567 0.678574 2.03561 0.678574H16.9642C17.3241 0.678574 17.6694 0.821558 17.9238 1.07607C18.1783 1.33059 18.3213 1.67578 18.3213 2.03572V16.9643C18.3213 17.3242 18.1783 17.6695 17.9238 17.9239C17.6694 18.1784 17.3241 18.3214 16.9642 18.3214H12.8928V11.8886H13.8563C14.0759 11.8886 14.2864 11.8013 14.4417 11.6461C14.5969 11.4908 14.6842 11.2803 14.6842 11.0607V10.0157C14.6842 9.907 14.6627 9.79935 14.6212 9.6989C14.5795 9.59846 14.5186 9.50721 14.4417 9.43033C14.3648 9.35346 14.2735 9.29248 14.1731 9.25087C14.0727 9.20927 13.965 9.18786 13.8563 9.18786H12.947V7.91214C12.947 6.77214 13.4628 6.77214 13.9785 6.77214H14.6435C14.7527 6.77665 14.8616 6.75709 14.9624 6.71489C15.0632 6.67268 15.1536 6.60883 15.227 6.52786C15.3059 6.45278 15.3683 6.36214 15.4104 6.2617C15.4525 6.16124 15.4732 6.05317 15.4713 5.94429V4.94C15.475 4.82949 15.4568 4.71934 15.4177 4.61588C15.3788 4.51239 15.3199 4.41761 15.2441 4.33694C15.1685 4.25629 15.0778 4.19131 14.9771 4.14575C14.8764 4.10019 14.7675 4.07493 14.657 4.07143H13.0963C12.6409 4.0543 12.1873 4.13625 11.7666 4.31159C11.346 4.48692 10.9684 4.75148 10.66 5.08698C10.3516 5.42249 10.1197 5.82094 9.98034 6.25482C9.84096 6.68869 9.79744 7.14765 9.85275 7.6V9.18786H8.98418C8.87433 9.18605 8.76522 9.20614 8.6632 9.24694C8.56119 9.28773 8.46832 9.34842 8.39001 9.42548C8.31169 9.50254 8.24949 9.5944 8.20704 9.69574C8.16459 9.79708 8.14274 9.90586 8.14275 10.0157V11.0607C8.14274 11.1706 8.16459 11.2794 8.20704 11.3807C8.24949 11.482 8.31169 11.5739 8.39001 11.651C8.46832 11.728 8.56119 11.7887 8.6632 11.8295C8.76522 11.8703 8.87433 11.8904 8.98418 11.8886H9.85275V18.3214H2.03561C1.67567 18.3214 1.33048 18.1784 1.07596 17.9239C0.821451 17.6695 0.678467 17.3242 0.678467 16.9643Z" stroke="white" stroke-linecap="round" stroke-linejoin="round"/>
</g>
<defs>
<clipPath id="clip0_2049_244">
<rect width="19" height="19" fill="white"/>
</clipPath>
</defs>
</svg>
