<svg width="59" height="59" viewBox="0 0 59 59" fill="none" xmlns="http://www.w3.org/2000/svg">
<g clip-path="url(#clip0_20_5)">
<path d="M29.4949 2.86451e-06C24.4532 0.00113186 19.496 1.29475 15.0966 3.75732C10.6972 6.2199 7.00251 9.7692 4.36543 14.0663C1.72834 18.3634 0.23688 23.2648 0.0334649 28.3025C-0.16995 33.3401 0.921474 38.3458 3.20351 42.8415L0.0401003 57.0972C-0.0194131 57.3539 -0.0125867 57.6216 0.0599364 57.8749C0.13246 58.1283 0.268291 58.359 0.454633 58.5454C0.640975 58.7317 0.871691 58.8675 1.12504 58.9401C1.37839 59.0126 1.64604 59.0194 1.90276 58.9599L16.1459 55.784C20.1199 57.8038 24.5001 58.8963 28.9571 58.9796C33.4141 59.0628 37.832 58.1346 41.8787 56.2647C45.9254 54.3948 49.4955 51.6319 52.3207 48.1837C55.146 44.7354 57.1527 40.6916 58.1902 36.3561C59.2277 32.0207 59.2688 27.5065 58.3106 23.1528C57.3524 18.7992 55.4197 14.7194 52.6578 11.2202C49.896 7.721 46.3768 4.89343 42.3649 2.95004C38.353 1.00666 33.9527 -0.00196175 29.4949 2.86451e-06ZM42.7726 34C42.513 34.2581 42.2394 34.5016 41.953 34.7296L30.5691 46.1136C30.278 46.4046 29.8832 46.5681 29.4716 46.5681C29.0601 46.5681 28.6653 46.4046 28.3742 46.1136L16.2173 33.9566C14.3941 32.1391 13.3297 29.6967 13.2397 27.1239C13.1497 24.5511 14.0408 22.0403 15.7326 20.0999C17.4244 18.1595 19.7903 16.9345 22.3514 16.6731C24.9124 16.4117 27.4771 17.1334 29.526 18.692C31.5815 17.1584 34.1413 16.4599 36.6908 16.737C39.2403 17.014 41.5904 18.2461 43.2685 20.1853C44.9467 22.1246 45.8284 24.6273 45.7363 27.1902C45.6443 29.7531 44.5854 32.1861 42.7726 34Z" fill="#6ABCB7"/>
<path d="M29.4949 2.86451e-06C24.4532 0.00113186 19.496 1.29475 15.0966 3.75732C10.6972 6.2199 7.00251 9.7692 4.36543 14.0663C1.72834 18.3634 0.23688 23.2648 0.0334649 28.3025C-0.16995 33.3401 0.921474 38.3458 3.20351 42.8415L0.0401003 57.0972C-0.0194131 57.3539 -0.0125867 57.6216 0.0599364 57.8749C0.13246 58.1283 0.268291 58.359 0.454633 58.5454C0.640975 58.7317 0.871691 58.8675 1.12504 58.9401C1.37839 59.0126 1.64604 59.0194 1.90276 58.9599L16.1459 55.784C20.1199 57.8038 24.5001 58.8963 28.9571 58.9796C33.4141 59.0628 37.832 58.1346 41.8787 56.2647C45.9254 54.3948 49.4955 51.6319 52.3207 48.1837C55.146 44.7354 57.1527 40.6916 58.1902 36.3561C59.2277 32.0207 59.2688 27.5065 58.3106 23.1528C57.3524 18.7992 55.4197 14.7194 52.6578 11.2202C49.896 7.721 46.3768 4.89343 42.3649 2.95004C38.353 1.00666 33.9527 -0.00196175 29.4949 2.86451e-06ZM42.7726 34C42.513 34.2581 42.2394 34.5016 41.953 34.7296L30.5691 46.1136C30.278 46.4046 29.8832 46.5681 29.4716 46.5681C29.0601 46.5681 28.6653 46.4046 28.3742 46.1136L16.2173 33.9566C14.3941 32.1391 13.3297 29.6967 13.2397 27.1239C13.1497 24.5511 14.0408 22.0403 15.7326 20.0999C17.4244 18.1595 19.7903 16.9345 22.3514 16.6731C24.9124 16.4117 27.4771 17.1334 29.526 18.692C31.5815 17.1584 34.1413 16.4599 36.6908 16.737C39.2403 17.014 41.5904 18.2461 43.2685 20.1853C44.9467 22.1246 45.8284 24.6273 45.7363 27.1902C45.6443 29.7531 44.5854 32.1861 42.7726 34Z" fill="url(#paint0_radial_20_5)" fill-opacity="0.34"/>
<path d="M29.495 0.500003L29.4951 0.500003C33.8774 0.498072 38.203 1.48959 42.1469 3.40003C46.0908 5.31046 49.5503 8.0901 52.2653 11.53C54.9804 14.9699 56.8803 18.9805 57.8223 23.2603C58.7643 27.5401 58.7238 31.9778 57.7039 36.2398C56.684 40.5017 54.7113 44.477 51.934 47.8668C49.1567 51.2566 45.647 53.9727 41.669 55.8109C37.6909 57.649 33.3479 58.5615 28.9664 58.4797C24.585 58.3978 20.2791 57.3238 16.3724 55.3383L16.2123 55.2569L16.0371 55.296L1.79394 58.4719L1.78983 58.4728C1.61582 58.5132 1.43439 58.5085 1.26265 58.4594C1.0909 58.4102 0.934506 58.3181 0.808189 58.1918C0.681873 58.0655 0.589793 57.9091 0.54063 57.7373C0.491468 57.5656 0.48684 57.3842 0.527205 57.2101L0.528227 57.2055L3.69164 42.9499L3.73045 42.775L3.64936 42.6152C1.40601 38.1957 0.333091 33.2749 0.533058 28.3226C0.733024 23.3704 2.1992 18.5521 4.79158 14.3278C7.38395 10.1036 11.016 6.61445 15.3408 4.19362C19.6656 1.7728 24.5388 0.501113 29.495 0.500003ZM43.125 34.3547L43.1262 34.3535C45.0284 32.4502 46.1395 29.8973 46.236 27.2081C46.3326 24.519 45.4074 21.893 43.6466 19.8582C41.8858 17.8233 39.42 16.5306 36.7449 16.2399C34.1932 15.9626 31.6316 16.6166 29.5289 18.0741C27.4314 16.5912 24.8643 15.914 22.3006 16.1757C19.6134 16.45 17.1308 17.7353 15.3557 19.7713C13.5806 21.8073 12.6456 24.4418 12.74 27.1414C12.8344 29.8409 13.9512 32.4037 15.8643 34.3107L28.0207 46.4672L28.0207 46.4672C28.4056 46.852 28.9275 47.0681 29.4716 47.0681C30.0158 47.0681 30.5377 46.852 30.9226 46.4672L30.9226 46.4672L42.2868 35.1029C42.5794 34.8687 42.8592 34.6189 43.125 34.3547Z" stroke="white" stroke-opacity="0.2"/>
<path d="M29.495 0.500003L29.4951 0.500003C33.8774 0.498072 38.203 1.48959 42.1469 3.40003C46.0908 5.31046 49.5503 8.0901 52.2653 11.53C54.9804 14.9699 56.8803 18.9805 57.8223 23.2603C58.7643 27.5401 58.7238 31.9778 57.7039 36.2398C56.684 40.5017 54.7113 44.477 51.934 47.8668C49.1567 51.2566 45.647 53.9727 41.669 55.8109C37.6909 57.649 33.3479 58.5615 28.9664 58.4797C24.585 58.3978 20.2791 57.3238 16.3724 55.3383L16.2123 55.2569L16.0371 55.296L1.79394 58.4719L1.78983 58.4728C1.61582 58.5132 1.43439 58.5085 1.26265 58.4594C1.0909 58.4102 0.934506 58.3181 0.808189 58.1918C0.681873 58.0655 0.589793 57.9091 0.54063 57.7373C0.491468 57.5656 0.48684 57.3842 0.527205 57.2101L0.528227 57.2055L3.69164 42.9499L3.73045 42.775L3.64936 42.6152C1.40601 38.1957 0.333091 33.2749 0.533058 28.3226C0.733024 23.3704 2.1992 18.5521 4.79158 14.3278C7.38395 10.1036 11.016 6.61445 15.3408 4.19362C19.6656 1.7728 24.5388 0.501113 29.495 0.500003ZM43.125 34.3547L43.1262 34.3535C45.0284 32.4502 46.1395 29.8973 46.236 27.2081C46.3326 24.519 45.4074 21.893 43.6466 19.8582C41.8858 17.8233 39.42 16.5306 36.7449 16.2399C34.1932 15.9626 31.6316 16.6166 29.5289 18.0741C27.4314 16.5912 24.8643 15.914 22.3006 16.1757C19.6134 16.45 17.1308 17.7353 15.3557 19.7713C13.5806 21.8073 12.6456 24.4418 12.74 27.1414C12.8344 29.8409 13.9512 32.4037 15.8643 34.3107L28.0207 46.4672L28.0207 46.4672C28.4056 46.852 28.9275 47.0681 29.4716 47.0681C30.0158 47.0681 30.5377 46.852 30.9226 46.4672L30.9226 46.4672L42.2868 35.1029C42.5794 34.8687 42.8592 34.6189 43.125 34.3547Z" stroke="url(#paint1_radial_20_5)" stroke-opacity="0.53"/>
</g>
<defs>
<radialGradient id="paint0_radial_20_5" cx="0" cy="0" r="1" gradientUnits="userSpaceOnUse" gradientTransform="translate(31.3383 12.39) rotate(91.3177) scale(76.1301 31.8354)">
<stop stop-color="white"/>
<stop offset="1" stop-color="white" stop-opacity="0"/>
</radialGradient>
<radialGradient id="paint1_radial_20_5" cx="0" cy="0" r="1" gradientUnits="userSpaceOnUse" gradientTransform="translate(30.7657 4.46658e-06) rotate(90.4081) scale(41.006 20.7602)">
<stop stop-color="white"/>
<stop offset="1" stop-color="white" stop-opacity="0"/>
</radialGradient>
<clipPath id="clip0_20_5">
<rect width="59" height="59" fill="white"/>
</clipPath>
</defs>
</svg>
