<svg width="175" height="27" viewBox="0 0 175 27" fill="none" xmlns="http://www.w3.org/2000/svg">
<g clip-path="url(#clip0_1_1042)">
<path d="M18.9778 5.94092C18.6566 5.94092 18.3952 6.20234 18.3952 6.52357C18.3952 6.84481 18.6566 7.10623 18.9778 7.10623C19.2991 7.10623 19.5605 6.84486 19.5605 6.52357C19.5605 6.20229 19.2991 5.94092 18.9778 5.94092Z" fill="white"/>
<path d="M12.0001 8.33447C9.15192 8.33447 6.83471 10.6517 6.83471 13.4999C6.83471 16.3481 9.15192 18.6654 12.0001 18.6654C14.8484 18.6654 17.1656 16.3482 17.1656 13.5C17.1656 10.6517 14.8484 8.33447 12.0001 8.33447Z" fill="white"/>
<path d="M17.4215 1.5H6.58001C2.95222 1.5 0.000778198 4.45144 0.000778198 8.07928V18.9208C0.000778198 22.5486 2.95222 25.5 6.58001 25.5H17.4215C21.0494 25.5 24.0008 22.5486 24.0008 18.9208V8.07928C24.0008 4.45144 21.0494 1.5 17.4215 1.5ZM12.0008 20.0828C8.37101 20.0828 5.41808 17.1298 5.41808 13.5C5.41808 9.87023 8.37106 6.91734 12.0008 6.91734C15.6305 6.91734 18.5835 9.87028 18.5835 13.5C18.5835 17.1297 15.6305 20.0828 12.0008 20.0828ZM18.9772 8.52356C17.8745 8.52356 16.9773 7.62637 16.9773 6.52359C16.9773 5.42081 17.8745 4.52358 18.9772 4.52358C20.08 4.52358 20.9772 5.42077 20.9772 6.52355C20.9772 7.62633 20.08 8.52356 18.9772 8.52356Z" fill="white"/>
</g>
<path d="M43.86 7.274C45.48 7.274 46.926 7.61 48.198 8.282C49.47 8.942 50.46 9.872 51.168 11.072C51.888 12.272 52.248 13.64 52.248 15.176C52.248 16.712 51.966 17.918 51.402 18.794C50.838 19.67 50.052 20.108 49.044 20.108C48.468 20.108 47.988 19.964 47.604 19.676C47.232 19.376 46.992 18.95 46.884 18.398C46.524 18.95 46.05 19.376 45.462 19.676C44.886 19.964 44.22 20.108 43.464 20.108C42.624 20.108 41.868 19.91 41.196 19.514C40.524 19.118 39.996 18.572 39.612 17.876C39.24 17.168 39.054 16.37 39.054 15.482C39.054 14.606 39.24 13.82 39.612 13.124C39.996 12.416 40.524 11.87 41.196 11.486C41.868 11.09 42.624 10.892 43.464 10.892C44.16 10.892 44.79 11.024 45.354 11.288C45.918 11.54 46.386 11.918 46.758 12.422V10.964H48.324V17.444C48.324 17.888 48.42 18.218 48.612 18.434C48.804 18.638 49.05 18.74 49.35 18.74C49.878 18.74 50.286 18.434 50.574 17.822C50.874 17.198 51.024 16.322 51.024 15.194C51.024 13.862 50.724 12.692 50.124 11.684C49.524 10.664 48.678 9.872 47.586 9.308C46.506 8.744 45.264 8.462 43.86 8.462C42.444 8.462 41.19 8.756 40.098 9.344C39.018 9.932 38.178 10.754 37.578 11.81C36.978 12.866 36.678 14.072 36.678 15.428C36.678 16.796 36.972 18.008 37.56 19.064C38.16 20.12 38.994 20.942 40.062 21.53C41.142 22.13 42.384 22.43 43.788 22.43C44.376 22.43 44.976 22.364 45.588 22.232C46.2 22.1 46.758 21.902 47.262 21.638L47.658 22.79C47.13 23.066 46.518 23.276 45.822 23.42C45.126 23.564 44.448 23.636 43.788 23.636C42.144 23.636 40.68 23.282 39.396 22.574C38.124 21.878 37.134 20.906 36.426 19.658C35.718 18.41 35.364 17 35.364 15.428C35.364 13.856 35.718 12.452 36.426 11.216C37.146 9.98 38.148 9.014 39.432 8.318C40.728 7.622 42.204 7.274 43.86 7.274ZM43.716 18.704C44.304 18.704 44.826 18.572 45.282 18.308C45.75 18.044 46.116 17.672 46.38 17.192C46.656 16.7 46.794 16.13 46.794 15.482C46.794 14.834 46.656 14.27 46.38 13.79C46.116 13.298 45.75 12.926 45.282 12.674C44.826 12.41 44.304 12.278 43.716 12.278C42.804 12.278 42.066 12.572 41.502 13.16C40.938 13.736 40.656 14.51 40.656 15.482C40.656 16.454 40.938 17.234 41.502 17.822C42.078 18.41 42.816 18.704 43.716 18.704ZM58.2272 10.37C59.5472 10.37 60.5552 10.694 61.2512 11.342C61.9592 11.99 62.3132 12.956 62.3132 14.24V20H60.6752V18.74C60.3872 19.184 59.9732 19.526 59.4332 19.766C58.9052 19.994 58.2752 20.108 57.5432 20.108C56.4752 20.108 55.6172 19.85 54.9692 19.334C54.3332 18.818 54.0152 18.14 54.0152 17.3C54.0152 16.46 54.3212 15.788 54.9332 15.284C55.5452 14.768 56.5172 14.51 57.8492 14.51H60.5852V14.168C60.5852 13.424 60.3692 12.854 59.9372 12.458C59.5052 12.062 58.8692 11.864 58.0292 11.864C57.4652 11.864 56.9132 11.96 56.3732 12.152C55.8332 12.332 55.3772 12.578 55.0052 12.89L54.2852 11.594C54.7772 11.198 55.3652 10.898 56.0492 10.694C56.7332 10.478 57.4592 10.37 58.2272 10.37ZM57.8312 18.776C58.4912 18.776 59.0612 18.632 59.5412 18.344C60.0212 18.044 60.3692 17.624 60.5852 17.084V15.752H57.9212C56.4572 15.752 55.7252 16.244 55.7252 17.228C55.7252 17.708 55.9112 18.086 56.2832 18.362C56.6552 18.638 57.1712 18.776 57.8312 18.776ZM70.605 10.37C71.817 10.37 72.777 10.724 73.485 11.432C74.205 12.128 74.565 13.154 74.565 14.51V20H72.837V14.708C72.837 13.784 72.615 13.088 72.171 12.62C71.727 12.152 71.091 11.918 70.263 11.918C69.327 11.918 68.589 12.194 68.049 12.746C67.509 13.286 67.239 14.066 67.239 15.086V20H65.511V10.46H67.167V11.9C67.515 11.408 67.983 11.03 68.571 10.766C69.171 10.502 69.849 10.37 70.605 10.37ZM82.857 10.37C84.069 10.37 85.029 10.724 85.737 11.432C86.457 12.128 86.817 13.154 86.817 14.51V20H85.089V14.708C85.089 13.784 84.867 13.088 84.423 12.62C83.979 12.152 83.343 11.918 82.515 11.918C81.579 11.918 80.841 12.194 80.301 12.746C79.761 13.286 79.491 14.066 79.491 15.086V20H77.763V10.46H79.419V11.9C79.767 11.408 80.235 11.03 80.823 10.766C81.423 10.502 82.101 10.37 82.857 10.37ZM93.489 10.37C94.809 10.37 95.817 10.694 96.513 11.342C97.221 11.99 97.575 12.956 97.575 14.24V20H95.937V18.74C95.649 19.184 95.235 19.526 94.695 19.766C94.167 19.994 93.537 20.108 92.805 20.108C91.737 20.108 90.879 19.85 90.231 19.334C89.595 18.818 89.277 18.14 89.277 17.3C89.277 16.46 89.583 15.788 90.195 15.284C90.807 14.768 91.779 14.51 93.111 14.51H95.847V14.168C95.847 13.424 95.631 12.854 95.199 12.458C94.767 12.062 94.131 11.864 93.291 11.864C92.727 11.864 92.175 11.96 91.635 12.152C91.095 12.332 90.639 12.578 90.267 12.89L89.547 11.594C90.039 11.198 90.627 10.898 91.311 10.694C91.995 10.478 92.721 10.37 93.489 10.37ZM93.093 18.776C93.753 18.776 94.323 18.632 94.803 18.344C95.283 18.044 95.631 17.624 95.847 17.084V15.752H93.183C91.719 15.752 90.987 16.244 90.987 17.228C90.987 17.708 91.173 18.086 91.545 18.362C91.917 18.638 92.433 18.776 93.093 18.776ZM99.1348 20H108.135V21.116H99.1348V20ZM114.831 10.37C115.755 10.37 116.583 10.574 117.315 10.982C118.047 11.39 118.617 11.96 119.025 12.692C119.445 13.424 119.655 14.27 119.655 15.23C119.655 16.19 119.445 17.042 119.025 17.786C118.617 18.518 118.047 19.088 117.315 19.496C116.583 19.904 115.755 20.108 114.831 20.108C114.123 20.108 113.475 19.97 112.887 19.694C112.299 19.418 111.813 19.016 111.429 18.488V20H109.773V6.644H111.501V11.9C111.885 11.396 112.365 11.018 112.941 10.766C113.517 10.502 114.147 10.37 114.831 10.37ZM114.687 18.596C115.299 18.596 115.845 18.458 116.325 18.182C116.817 17.894 117.201 17.498 117.477 16.994C117.765 16.478 117.909 15.89 117.909 15.23C117.909 14.57 117.765 13.988 117.477 13.484C117.201 12.968 116.817 12.572 116.325 12.296C115.845 12.02 115.299 11.882 114.687 11.882C114.087 11.882 113.541 12.02 113.049 12.296C112.557 12.572 112.173 12.968 111.897 13.484C111.621 13.988 111.483 14.57 111.483 15.23C111.483 15.89 111.621 16.478 111.897 16.994C112.173 17.498 112.557 17.894 113.049 18.182C113.541 18.458 114.087 18.596 114.687 18.596ZM124.778 20.108C123.998 20.108 123.248 20.006 122.528 19.802C121.808 19.586 121.244 19.316 120.836 18.992L121.556 17.624C121.976 17.924 122.486 18.164 123.086 18.344C123.686 18.524 124.292 18.614 124.904 18.614C126.416 18.614 127.172 18.182 127.172 17.318C127.172 17.03 127.07 16.802 126.866 16.634C126.662 16.466 126.404 16.346 126.092 16.274C125.792 16.19 125.36 16.1 124.796 16.004C124.028 15.884 123.398 15.746 122.906 15.59C122.426 15.434 122.012 15.17 121.664 14.798C121.316 14.426 121.142 13.904 121.142 13.232C121.142 12.368 121.502 11.678 122.222 11.162C122.942 10.634 123.908 10.37 125.12 10.37C125.756 10.37 126.392 10.448 127.028 10.604C127.664 10.76 128.186 10.97 128.594 11.234L127.856 12.602C127.076 12.098 126.158 11.846 125.102 11.846C124.37 11.846 123.812 11.966 123.428 12.206C123.044 12.446 122.852 12.764 122.852 13.16C122.852 13.472 122.96 13.718 123.176 13.898C123.392 14.078 123.656 14.21 123.968 14.294C124.292 14.378 124.742 14.474 125.318 14.582C126.086 14.714 126.704 14.858 127.172 15.014C127.652 15.158 128.06 15.41 128.396 15.77C128.732 16.13 128.9 16.634 128.9 17.282C128.9 18.146 128.528 18.836 127.784 19.352C127.052 19.856 126.05 20.108 124.778 20.108ZM136.154 10.37C137.366 10.37 138.326 10.724 139.034 11.432C139.754 12.128 140.114 13.154 140.114 14.51V20H138.386V14.708C138.386 13.784 138.164 13.088 137.72 12.62C137.276 12.152 136.64 11.918 135.812 11.918C134.876 11.918 134.138 12.194 133.598 12.746C133.058 13.286 132.788 14.066 132.788 15.086V20H131.06V6.644H132.788V11.81C133.148 11.354 133.616 11 134.192 10.748C134.78 10.496 135.434 10.37 136.154 10.37ZM147.451 20.108C146.503 20.108 145.651 19.898 144.895 19.478C144.139 19.058 143.545 18.482 143.113 17.75C142.693 17.006 142.483 16.166 142.483 15.23C142.483 14.294 142.693 13.46 143.113 12.728C143.545 11.984 144.139 11.408 144.895 11C145.651 10.58 146.503 10.37 147.451 10.37C148.399 10.37 149.245 10.58 149.989 11C150.745 11.408 151.333 11.984 151.753 12.728C152.185 13.46 152.401 14.294 152.401 15.23C152.401 16.166 152.185 17.006 151.753 17.75C151.333 18.482 150.745 19.058 149.989 19.478C149.245 19.898 148.399 20.108 147.451 20.108ZM147.451 18.596C148.063 18.596 148.609 18.458 149.089 18.182C149.581 17.894 149.965 17.498 150.241 16.994C150.517 16.478 150.655 15.89 150.655 15.23C150.655 14.57 150.517 13.988 150.241 13.484C149.965 12.968 149.581 12.572 149.089 12.296C148.609 12.02 148.063 11.882 147.451 11.882C146.839 11.882 146.287 12.02 145.795 12.296C145.315 12.572 144.931 12.968 144.643 13.484C144.367 13.988 144.229 14.57 144.229 15.23C144.229 15.89 144.367 16.478 144.643 16.994C144.931 17.498 145.315 17.894 145.795 18.182C146.287 18.458 146.839 18.596 147.451 18.596ZM158.948 20.108C157.976 20.108 157.106 19.898 156.338 19.478C155.582 19.058 154.988 18.482 154.556 17.75C154.124 17.006 153.908 16.166 153.908 15.23C153.908 14.294 154.124 13.46 154.556 12.728C154.988 11.984 155.582 11.408 156.338 11C157.106 10.58 157.976 10.37 158.948 10.37C159.812 10.37 160.58 10.544 161.252 10.892C161.936 11.24 162.464 11.744 162.836 12.404L161.522 13.25C161.222 12.794 160.85 12.452 160.406 12.224C159.962 11.996 159.47 11.882 158.93 11.882C158.306 11.882 157.742 12.02 157.238 12.296C156.746 12.572 156.356 12.968 156.068 13.484C155.792 13.988 155.654 14.57 155.654 15.23C155.654 15.902 155.792 16.496 156.068 17.012C156.356 17.516 156.746 17.906 157.238 18.182C157.742 18.458 158.306 18.596 158.93 18.596C159.47 18.596 159.962 18.482 160.406 18.254C160.85 18.026 161.222 17.684 161.522 17.228L162.836 18.056C162.464 18.716 161.936 19.226 161.252 19.586C160.58 19.934 159.812 20.108 158.948 20.108ZM168.659 15.554L166.679 17.39V20H164.951V6.644H166.679V15.212L171.881 10.46H173.969L169.955 14.402L174.365 20H172.241L168.659 15.554Z" fill="white"/>
<defs>
<clipPath id="clip0_1_1042">
<rect width="24" height="24" fill="white" transform="translate(0 1.5)"/>
</clipPath>
</defs>
</svg>
