<svg width="20" height="20" viewBox="0 0 20 20" fill="none" xmlns="http://www.w3.org/2000/svg">
<path d="M14.7617 5.20577C14.5644 5.20577 14.4045 5.04587 14.4045 4.84863C14.4045 4.65139 14.5644 4.49149 14.7617 4.49149" stroke="white" stroke-linecap="round" stroke-linejoin="round"/>
<path d="M14.7617 5.20577C14.959 5.20577 15.1189 5.04587 15.1189 4.84863C15.1189 4.65139 14.959 4.49149 14.7617 4.49149" stroke="white" stroke-linecap="round" stroke-linejoin="round"/>
<path d="M1.22607 4.90202C1.22607 2.87198 2.87175 1.22629 4.90181 1.22629H14.7038C16.7338 1.22629 18.3795 2.87198 18.3795 4.90202V14.704C18.3795 16.734 16.7338 18.3797 14.7038 18.3797H4.90181C2.87175 18.3797 1.22607 16.734 1.22607 14.704V4.90202Z" stroke="white" stroke-linecap="round" stroke-linejoin="round"/>
<path d="M9.80277 13.4457C11.8147 13.4457 13.4456 11.8148 13.4456 9.80286C13.4456 7.79097 11.8147 6.16 9.80277 6.16C7.79088 6.16 6.15991 7.79097 6.15991 9.80286C6.15991 11.8148 7.79088 13.4457 9.80277 13.4457Z" stroke="white" stroke-linecap="round" stroke-linejoin="round"/>
</svg>
