<svg width="54" height="54" viewBox="0 0 54 54" fill="none" xmlns="http://www.w3.org/2000/svg">
<path d="M44.0238 28.1348C43.8013 30.9194 43.1491 33.6036 42.0642 36.1736C41.8861 36.5921 41.4611 36.9134 41.1281 37.2578C40.9792 37.4107 40.7782 37.5126 40.5925 37.6285C40.1736 37.8864 40.0293 38.2432 40.1874 38.7127C40.3516 39.2053 40.235 39.6208 39.9342 40.0393C37.1274 43.9313 33.3754 46.2372 28.6382 46.8982C27.92 47.0002 27.1926 47.031 26.6954 47.0743C22.7332 47.0125 19.2819 46.0735 16.245 43.8155C14.7841 42.7282 13.5871 41.3861 12.536 39.9034C12.2981 39.5667 12.3027 39.2115 12.404 38.8393C12.5759 38.1984 12.4623 37.8972 11.8868 37.6115C10.9538 37.1451 10.4474 36.3466 10.1113 35.3967C7.84784 28.9811 7.88314 22.5948 10.3216 16.2348C10.6239 15.4518 11.1027 14.8386 11.8485 14.4309C12.4899 14.0788 12.5743 13.8486 12.3963 13.1428C12.315 12.8108 12.3487 12.5173 12.5528 12.2316C14.8163 9.11336 17.6722 6.81677 21.4165 5.74802C23.9271 5.02831 26.4668 4.96653 29.0326 5.37272C31.6751 5.78817 34.0936 6.74573 36.2481 8.35041C37.5587 9.32804 38.6896 10.4895 39.6994 11.7744C40.0569 12.2316 40.2043 12.7459 40.0953 13.3266C40.017 13.7343 40.1153 14.1127 40.4851 14.2888C41.6329 14.8324 42.1102 15.8456 42.4984 16.9653C43.7599 20.5871 44.3338 24.2999 44.0238 28.1348Z" stroke="white" stroke-width="1.3346" stroke-miterlimit="10"/>
<path d="M21.3586 26.5991V13.9316H25.759C26.6358 13.9316 27.3589 14.0842 27.9284 14.3894C28.4979 14.6904 28.922 15.0965 29.2006 15.6079C29.4792 16.115 29.6185 16.6779 29.6185 17.2964C29.6185 17.8407 29.5222 18.2902 29.3297 18.6448C29.1412 18.9995 28.8913 19.2799 28.5799 19.486C28.2726 19.6922 27.9387 19.8448 27.5781 19.9437V20.0674C27.9633 20.0922 28.3504 20.2283 28.7397 20.4757C29.1289 20.7231 29.4546 21.0777 29.7169 21.5395C29.9791 22.0014 30.1102 22.5663 30.1102 23.2343C30.1102 23.8693 29.9668 24.4404 29.68 24.9476C29.3932 25.4548 28.9404 25.8569 28.3218 26.1538C27.7031 26.4507 26.898 26.5991 25.9065 26.5991H21.3586ZM22.8828 25.2384H25.9065C26.9021 25.2384 27.6089 25.0445 28.0268 24.6569C28.4488 24.2652 28.6598 23.791 28.6598 23.2343C28.6598 22.8055 28.5512 22.4096 28.3341 22.0467C28.1169 21.6797 27.8076 21.387 27.4061 21.1684C27.0045 20.9458 26.5293 20.8344 25.9802 20.8344H22.8828V25.2384ZM22.8828 19.4984H25.7098C26.1687 19.4984 26.5825 19.4077 26.9513 19.2262C27.3241 19.0448 27.6191 18.7892 27.8363 18.4593C28.0575 18.1294 28.1681 17.7418 28.1681 17.2964C28.1681 16.7398 27.9756 16.2676 27.5904 15.88C27.2053 15.4883 26.5948 15.2924 25.759 15.2924H22.8828V19.4984Z" fill="white"/>
<path d="M32.606 24.6168C32.5456 24.1032 32.3005 23.7045 31.8708 23.4207C31.441 23.1368 30.9139 22.9949 30.2895 22.9949C29.8329 22.9949 29.4334 23.0693 29.0909 23.2179C28.7518 23.3666 28.4866 23.571 28.2952 23.8312C28.1072 24.0914 28.0132 24.387 28.0132 24.7182C28.0132 24.9952 28.0787 25.2334 28.2096 25.4328C28.3439 25.6288 28.5151 25.7926 28.7233 25.9244C28.9314 26.0528 29.1497 26.1593 29.378 26.2437C29.6063 26.3248 29.8161 26.3907 30.0075 26.4414L31.0549 26.7252C31.3235 26.7962 31.6223 26.8942 31.9513 27.0192C32.2837 27.1442 32.601 27.3148 32.9031 27.5311C33.2086 27.744 33.4604 28.0177 33.6585 28.3522C33.8566 28.6867 33.9556 29.0972 33.9556 29.5838C33.9556 30.1447 33.8096 30.6515 33.5175 31.1043C33.2288 31.557 32.8058 31.9169 32.2484 32.1838C31.6945 32.4508 31.0214 32.5842 30.229 32.5842C29.4904 32.5842 28.8509 32.4643 28.3103 32.2244C27.7732 31.9845 27.3502 31.65 27.0413 31.2208C26.7358 30.7917 26.5629 30.2933 26.5226 29.7257H27.8118C27.8454 30.1176 27.9763 30.442 28.2046 30.6988C28.4362 30.9522 28.7283 31.1414 29.0808 31.2665C29.4367 31.3881 29.8194 31.4489 30.229 31.4489C30.7058 31.4489 31.1338 31.3712 31.5132 31.2158C31.8926 31.057 32.1931 30.8373 32.4146 30.5569C32.6362 30.2731 32.747 29.9419 32.747 29.5635C32.747 29.2188 32.6513 28.9384 32.46 28.7222C32.2686 28.5059 32.0168 28.3302 31.7046 28.195C31.3923 28.0599 31.0549 27.9416 30.6923 27.8403L29.4233 27.4753C28.6175 27.2422 27.9796 26.9094 27.5096 26.4769C27.0396 26.0444 26.8046 25.4784 26.8046 24.779C26.8046 24.1978 26.9607 23.691 27.2729 23.2585C27.5885 22.8226 28.0115 22.4847 28.542 22.2448C29.0758 22.0015 29.6717 21.8799 30.3298 21.8799C30.9945 21.8799 31.5854 21.9998 32.1024 22.2397C32.6194 22.4763 33.029 22.8006 33.3312 23.2129C33.6367 23.6251 33.7978 24.0931 33.8146 24.6168H32.606Z" fill="white"/>
<path d="M21.9766 35.736C21.9614 35.6065 21.8996 35.506 21.7912 35.4344C21.6829 35.3629 21.55 35.3271 21.3925 35.3271C21.2774 35.3271 21.1766 35.3458 21.0903 35.3833C21.0048 35.4208 20.9379 35.4723 20.8896 35.538C20.8422 35.6036 20.8185 35.6781 20.8185 35.7616C20.8185 35.8315 20.835 35.8915 20.868 35.9418C20.9019 35.9912 20.9451 36.0326 20.9976 36.0658C21.0501 36.0982 21.1051 36.125 21.1627 36.1463C21.2202 36.1668 21.2731 36.1834 21.3214 36.1961L21.5855 36.2677C21.6532 36.2856 21.7286 36.3103 21.8116 36.3418C21.8954 36.3734 21.9754 36.4164 22.0516 36.4709C22.1286 36.5246 22.1921 36.5936 22.2421 36.678C22.292 36.7623 22.317 36.8659 22.317 36.9885C22.317 37.13 22.2801 37.2578 22.2065 37.372C22.1337 37.4861 22.027 37.5769 21.8865 37.6442C21.7468 37.7115 21.5771 37.7452 21.3773 37.7452C21.191 37.7452 21.0297 37.7149 20.8934 37.6544C20.758 37.5939 20.6513 37.5096 20.5734 37.4014C20.4964 37.2931 20.4528 37.1675 20.4426 37.0243H20.7677C20.7762 37.1232 20.8092 37.205 20.8668 37.2697C20.9252 37.3336 20.9988 37.3813 21.0877 37.4129C21.1775 37.4435 21.274 37.4589 21.3773 37.4589C21.4975 37.4589 21.6054 37.4393 21.7011 37.4001C21.7967 37.36 21.8725 37.3046 21.9284 37.2339C21.9843 37.1624 22.0122 37.0789 22.0122 36.9834C22.0122 36.8965 21.9881 36.8258 21.9398 36.7713C21.8916 36.7167 21.8281 36.6724 21.7493 36.6384C21.6706 36.6043 21.5855 36.5745 21.4941 36.5489L21.1741 36.4569C20.9709 36.3981 20.81 36.3142 20.6915 36.2051C20.573 36.096 20.5137 35.9533 20.5137 35.7769C20.5137 35.6304 20.5531 35.5026 20.6318 35.3935C20.7114 35.2836 20.8181 35.1984 20.9519 35.1379C21.0865 35.0766 21.2367 35.0459 21.4027 35.0459C21.5703 35.0459 21.7193 35.0761 21.8497 35.1366C21.98 35.1963 22.0833 35.2781 22.1595 35.382C22.2366 35.486 22.2772 35.604 22.2814 35.736H21.9766Z" fill="white"/>
<path d="M22.6925 35.3629V35.0817H24.6431V35.3629H23.8253V37.6991H23.5103V35.3629H22.6925Z" fill="white"/>
<path d="M26.8359 35.0817H27.1508V36.8147C27.1508 36.9937 27.1089 37.1534 27.0251 37.294C26.9421 37.4337 26.8249 37.5441 26.6733 37.625C26.5218 37.7051 26.344 37.7452 26.14 37.7452C25.9359 37.7452 25.7582 37.7051 25.6066 37.625C25.4551 37.5441 25.3374 37.4337 25.2536 37.294C25.1706 37.1534 25.1291 36.9937 25.1291 36.8147V35.0817H25.4441V36.7892C25.4441 36.917 25.472 37.0307 25.5279 37.1304C25.5838 37.2292 25.6633 37.3072 25.7666 37.3643C25.8707 37.4205 25.9952 37.4486 26.14 37.4486C26.2847 37.4486 26.4092 37.4205 26.5133 37.3643C26.6174 37.3072 26.697 37.2292 26.752 37.1304C26.8079 37.0307 26.8359 36.917 26.8359 36.7892V35.0817Z" fill="white"/>
<path d="M28.5823 37.6991H27.7797V35.0817H28.6178C28.8701 35.0817 29.086 35.1341 29.2655 35.2389C29.4449 35.3428 29.5825 35.4924 29.6782 35.6875C29.7738 35.8817 29.8217 36.1144 29.8217 36.3853C29.8217 36.658 29.7734 36.8927 29.6769 37.0895C29.5804 37.2855 29.4399 37.4363 29.2553 37.5419C29.0707 37.6467 28.8464 37.6991 28.5823 37.6991ZM28.0946 37.418H28.5619C28.777 37.418 28.9552 37.3762 29.0966 37.2927C29.238 37.2092 29.3434 37.0904 29.4128 36.9361C29.4822 36.7819 29.5169 36.5983 29.5169 36.3853C29.5169 36.174 29.4826 35.9921 29.414 35.8396C29.3455 35.6862 29.243 35.5686 29.1067 35.4868C28.9704 35.4042 28.8007 35.3629 28.5975 35.3629H28.0946V37.418Z" fill="white"/>
<path d="M30.6649 35.0817V37.6991H30.3499V35.0817H30.6649Z" fill="white"/>
<path d="M33.4907 36.3904C33.4907 36.6665 33.4412 36.905 33.3421 37.1061C33.2431 37.3072 33.1072 37.4623 32.9345 37.5713C32.7618 37.6804 32.5645 37.7349 32.3427 37.7349C32.1209 37.7349 31.9237 37.6804 31.7509 37.5713C31.5782 37.4623 31.4424 37.3072 31.3433 37.1061C31.2443 36.905 31.1947 36.6665 31.1947 36.3904C31.1947 36.1144 31.2443 35.8758 31.3433 35.6747C31.4424 35.4736 31.5782 35.3186 31.7509 35.2095C31.9237 35.1004 32.1209 35.0459 32.3427 35.0459C32.5645 35.0459 32.7618 35.1004 32.9345 35.2095C33.1072 35.3186 33.2431 35.4736 33.3421 35.6747C33.4412 35.8758 33.4907 36.1144 33.4907 36.3904ZM33.1859 36.3904C33.1859 36.1638 33.1482 35.9725 33.0729 35.8166C32.9984 35.6606 32.8972 35.5426 32.7694 35.4625C32.6424 35.3825 32.5002 35.3424 32.3427 35.3424C32.1852 35.3424 32.0426 35.3825 31.9148 35.4625C31.7878 35.5426 31.6866 35.6606 31.6113 35.8166C31.5368 35.9725 31.4995 36.1638 31.4995 36.3904C31.4995 36.6171 31.5368 36.8083 31.6113 36.9643C31.6866 37.1202 31.7878 37.2382 31.9148 37.3183C32.0426 37.3984 32.1852 37.4384 32.3427 37.4384C32.5002 37.4384 32.6424 37.3984 32.7694 37.3183C32.8972 37.2382 32.9984 37.1202 33.0729 36.9643C33.1482 36.8083 33.1859 36.6171 33.1859 36.3904Z" fill="white"/>
<path d="M21.9766 35.736C21.9614 35.6065 21.8996 35.506 21.7912 35.4344C21.6829 35.3629 21.55 35.3271 21.3925 35.3271C21.2774 35.3271 21.1766 35.3458 21.0903 35.3833C21.0048 35.4208 20.9379 35.4723 20.8896 35.538C20.8422 35.6036 20.8185 35.6781 20.8185 35.7616C20.8185 35.8315 20.835 35.8915 20.868 35.9418C20.9019 35.9912 20.9451 36.0326 20.9976 36.0658C21.0501 36.0982 21.1051 36.125 21.1627 36.1463C21.2202 36.1668 21.2731 36.1834 21.3214 36.1961L21.5855 36.2677C21.6532 36.2856 21.7286 36.3103 21.8116 36.3418C21.8954 36.3734 21.9754 36.4164 22.0516 36.4709C22.1286 36.5246 22.1921 36.5936 22.2421 36.678C22.292 36.7623 22.317 36.8659 22.317 36.9885C22.317 37.13 22.2801 37.2578 22.2065 37.372C22.1337 37.4861 22.027 37.5769 21.8865 37.6442C21.7468 37.7115 21.5771 37.7452 21.3773 37.7452C21.191 37.7452 21.0297 37.7149 20.8934 37.6544C20.758 37.5939 20.6513 37.5096 20.5734 37.4014C20.4964 37.2931 20.4528 37.1675 20.4426 37.0243H20.7677C20.7762 37.1232 20.8092 37.205 20.8668 37.2697C20.9252 37.3336 20.9988 37.3813 21.0877 37.4129C21.1775 37.4435 21.274 37.4589 21.3773 37.4589C21.4975 37.4589 21.6054 37.4393 21.7011 37.4001C21.7967 37.36 21.8725 37.3046 21.9284 37.2339C21.9843 37.1624 22.0122 37.0789 22.0122 36.9834C22.0122 36.8965 21.9881 36.8258 21.9398 36.7713C21.8916 36.7167 21.8281 36.6724 21.7493 36.6384C21.6706 36.6043 21.5855 36.5745 21.4941 36.5489L21.1741 36.4569C20.9709 36.3981 20.81 36.3142 20.6915 36.2051C20.573 36.096 20.5137 35.9533 20.5137 35.7769C20.5137 35.6304 20.5531 35.5026 20.6318 35.3935C20.7114 35.2836 20.8181 35.1984 20.9519 35.1379C21.0865 35.0766 21.2367 35.0459 21.4027 35.0459C21.5703 35.0459 21.7193 35.0761 21.8497 35.1366C21.98 35.1963 22.0833 35.2781 22.1595 35.382C22.2366 35.486 22.2772 35.604 22.2814 35.736H21.9766Z" stroke="white" stroke-width="0.3336" stroke-miterlimit="10"/>
<path d="M22.6925 35.3629V35.0817H24.6431V35.3629H23.8253V37.6991H23.5103V35.3629H22.6925Z" stroke="white" stroke-width="0.3336" stroke-miterlimit="10"/>
<path d="M26.8359 35.0817H27.1508V36.8147C27.1508 36.9937 27.1089 37.1534 27.0251 37.294C26.9421 37.4337 26.8249 37.5441 26.6733 37.625C26.5218 37.7051 26.344 37.7452 26.14 37.7452C25.9359 37.7452 25.7582 37.7051 25.6066 37.625C25.4551 37.5441 25.3374 37.4337 25.2536 37.294C25.1706 37.1534 25.1291 36.9937 25.1291 36.8147V35.0817H25.4441V36.7892C25.4441 36.917 25.472 37.0307 25.5279 37.1304C25.5838 37.2292 25.6633 37.3072 25.7666 37.3643C25.8707 37.4205 25.9952 37.4486 26.14 37.4486C26.2847 37.4486 26.4092 37.4205 26.5133 37.3643C26.6174 37.3072 26.697 37.2292 26.752 37.1304C26.8079 37.0307 26.8359 36.917 26.8359 36.7892V35.0817Z" stroke="white" stroke-width="0.3336" stroke-miterlimit="10"/>
<path d="M28.5823 37.6991H27.7797V35.0817H28.6178C28.8701 35.0817 29.086 35.1341 29.2655 35.2389C29.4449 35.3428 29.5825 35.4924 29.6782 35.6875C29.7738 35.8817 29.8217 36.1144 29.8217 36.3853C29.8217 36.658 29.7734 36.8927 29.6769 37.0895C29.5804 37.2855 29.4399 37.4363 29.2553 37.5419C29.0707 37.6467 28.8464 37.6991 28.5823 37.6991ZM28.0946 37.418H28.5619C28.777 37.418 28.9552 37.3762 29.0966 37.2927C29.238 37.2092 29.3434 37.0904 29.4128 36.9361C29.4822 36.7819 29.5169 36.5983 29.5169 36.3853C29.5169 36.174 29.4826 35.9921 29.414 35.8396C29.3455 35.6862 29.243 35.5686 29.1067 35.4868C28.9704 35.4042 28.8007 35.3629 28.5975 35.3629H28.0946V37.418Z" stroke="white" stroke-width="0.3336" stroke-miterlimit="10"/>
<path d="M30.6649 35.0817V37.6991H30.3499V35.0817H30.6649Z" stroke="white" stroke-width="0.3336" stroke-miterlimit="10"/>
<path d="M33.4907 36.3904C33.4907 36.6665 33.4412 36.905 33.3421 37.1061C33.2431 37.3072 33.1072 37.4623 32.9345 37.5713C32.7618 37.6804 32.5645 37.7349 32.3427 37.7349C32.1209 37.7349 31.9237 37.6804 31.7509 37.5713C31.5782 37.4623 31.4424 37.3072 31.3433 37.1061C31.2443 36.905 31.1947 36.6665 31.1947 36.3904C31.1947 36.1144 31.2443 35.8758 31.3433 35.6747C31.4424 35.4736 31.5782 35.3186 31.7509 35.2095C31.9237 35.1004 32.1209 35.0459 32.3427 35.0459C32.5645 35.0459 32.7618 35.1004 32.9345 35.2095C33.1072 35.3186 33.2431 35.4736 33.3421 35.6747C33.4412 35.8758 33.4907 36.1144 33.4907 36.3904ZM33.1859 36.3904C33.1859 36.1638 33.1482 35.9725 33.0729 35.8166C32.9984 35.6606 32.8972 35.5426 32.7694 35.4625C32.6424 35.3825 32.5002 35.3424 32.3427 35.3424C32.1852 35.3424 32.0426 35.3825 31.9148 35.4625C31.7878 35.5426 31.6866 35.6606 31.6113 35.8166C31.5368 35.9725 31.4995 36.1638 31.4995 36.3904C31.4995 36.6171 31.5368 36.8083 31.6113 36.9643C31.6866 37.1202 31.7878 37.2382 31.9148 37.3183C32.0426 37.3984 32.1852 37.4384 32.3427 37.4384C32.5002 37.4384 32.6424 37.3984 32.7694 37.3183C32.8972 37.2382 32.9984 37.1202 33.0729 36.9643C33.1482 36.8083 33.1859 36.6171 33.1859 36.3904Z" stroke="white" stroke-width="0.3336" stroke-miterlimit="10"/>
<path d="M13.5902 38.7461C18.9244 45.9587 29.4868 47.2174 36.3632 41.4937C37.3116 40.7199 38.1694 39.8334 38.9244 38.8635C38.1909 39.8488 37.3484 40.7554 36.4123 41.5523C29.5636 47.4135 18.8093 46.1409 13.5902 38.7461Z" fill="white"/>
<path d="M13.65 13.3452C18.9612 6.02606 29.7047 4.80749 36.5044 10.7428C37.4328 11.549 38.2645 12.4664 38.9842 13.4626C38.2446 12.4818 37.396 11.5845 36.4553 10.8015C29.6234 5.00054 19.0701 6.21294 13.65 13.3452Z" fill="white"/>
</svg>
