<svg width="23" height="23" viewBox="0 0 23 23" fill="none" xmlns="http://www.w3.org/2000/svg">
<path d="M20.125 7.66669L16.7126 9.56248C14.8101 10.6194 13.8588 11.1479 12.8514 11.3551C11.9598 11.5384 11.0402 11.5384 10.1486 11.3551C9.1412 11.1479 8.18995 10.6194 6.28743 9.56248L2.875 7.66669M5.94167 18.2084H17.0583C18.1318 18.2084 18.6685 18.2084 19.0785 17.9994C19.4391 17.8157 19.7324 17.5225 19.9161 17.1619C20.125 16.7519 20.125 16.2151 20.125 15.1417V7.85835C20.125 6.78492 20.125 6.2482 19.9161 5.83821C19.7324 5.47756 19.4391 5.18434 19.0785 5.00059C18.6685 4.79169 18.1318 4.79169 17.0583 4.79169H5.94167C4.86824 4.79169 4.33151 4.79169 3.92152 5.00059C3.56087 5.18434 3.26766 5.47756 3.08391 5.83821C2.875 6.2482 2.875 6.78491 2.875 7.85835V15.1417C2.875 16.2151 2.875 16.7519 3.08391 17.1619C3.26766 17.5225 3.56087 17.8157 3.92152 17.9994C4.33151 18.2084 4.86823 18.2084 5.94167 18.2084Z" stroke="white" stroke-linecap="round" stroke-linejoin="round"/>
</svg>
