<svg width="25" height="25" viewBox="0 0 25 25" fill="none" xmlns="http://www.w3.org/2000/svg">
<g clip-path="url(#clip0_38_60)">
<path d="M18.4988 14.3652C18.45 14.3419 16.6275 13.4444 16.3036 13.3278C16.1714 13.2803 16.0298 13.234 15.8791 13.234C15.633 13.234 15.4263 13.3566 15.2652 13.5976C15.0832 13.8682 14.532 14.5124 14.3617 14.7049C14.3395 14.7303 14.3091 14.7606 14.291 14.7606C14.2746 14.7606 13.9926 14.6445 13.9072 14.6074C11.9521 13.7581 10.4681 11.7158 10.2646 11.3714C10.2355 11.3219 10.2343 11.2994 10.2341 11.2994C10.2412 11.2732 10.3069 11.2073 10.3409 11.1733C10.4401 11.0751 10.5477 10.9456 10.6518 10.8204C10.701 10.761 10.7504 10.7016 10.7988 10.6456C10.9498 10.47 11.017 10.3336 11.0949 10.1756L11.1358 10.0936C11.326 9.71557 11.1635 9.39658 11.111 9.29358C11.0679 9.20738 10.2983 7.35007 10.2165 7.15494C10.0198 6.68408 9.75979 6.46484 9.39851 6.46484C9.36498 6.46484 9.39851 6.46484 9.25792 6.47077C9.08674 6.47799 8.15451 6.60072 7.74234 6.86054C7.30524 7.13611 6.5658 8.01452 6.5658 9.55932C6.5658 10.9497 7.4481 12.2624 7.82692 12.7617C7.83633 12.7743 7.85362 12.7998 7.8787 12.8365C9.32943 14.9552 11.138 16.5253 12.9713 17.2577C14.7363 17.9627 15.5721 18.0442 16.0473 18.0442H16.0474C16.247 18.0442 16.4069 18.0286 16.5479 18.0147L16.6373 18.0062C17.247 17.9521 18.587 17.2578 18.8918 16.4108C19.1319 15.7437 19.1952 15.0148 19.0354 14.7502C18.926 14.5704 18.7375 14.4799 18.4988 14.3652Z" fill="black"/>
<path d="M12.7219 0C5.95112 0 0.442676 5.46705 0.442676 12.1869C0.442676 14.3604 1.02433 16.4879 2.1262 18.3499L0.0171889 24.5711C-0.0220968 24.6871 0.007124 24.8153 0.0929195 24.9027C0.154851 24.9659 0.238861 25 0.324656 25C0.35753 25 0.390647 24.995 0.422952 24.9847L6.90997 22.9234C8.68513 23.8718 10.6915 24.3725 12.722 24.3725C19.4921 24.3726 25 18.9061 25 12.1869C25 5.46705 19.4921 0 12.7219 0ZM12.7219 21.8339C10.8113 21.8339 8.9607 21.2822 7.36995 20.2384C7.31646 20.2032 7.25436 20.1852 7.19186 20.1852C7.15883 20.1852 7.12571 20.1903 7.09349 20.2005L3.84389 21.2334L4.89292 18.1386C4.92685 18.0384 4.90988 17.9279 4.84738 17.8425C3.63602 16.1873 2.99568 14.2317 2.99568 12.1869C2.99568 6.86688 7.35883 2.53864 12.7218 2.53864C18.0842 2.53864 22.4468 6.86688 22.4468 12.1869C22.4469 17.5063 18.0843 21.8339 12.7219 21.8339Z" fill="black"/>
</g>
<defs>
<clipPath id="clip0_38_60">
<rect width="25" height="25" fill="white"/>
</clipPath>
</defs>
</svg>
